<mxfile host="app.diagrams.net" agent="Mozilla/5.0 (Macintosh; Intel Mac OS X 10_15_7) AppleWebKit/537.36 (KHTML, like Gecko) Chrome/129.0.0.0 Safari/537.36" version="24.8.0">
  <diagram name="Page-1" id="Tqegde7qSVKRDXXpzb4U">
    <mxGraphModel dx="1434" dy="761" grid="1" gridSize="10" guides="1" tooltips="1" connect="1" arrows="1" fold="1" page="1" pageScale="1" pageWidth="827" pageHeight="1169" math="0" shadow="0">
      <root>
        <mxCell id="0" />
        <mxCell id="1" parent="0" />
        <mxCell id="0w7B_Qu3y_xX7L4CdGE6-1" value="Admin" style="shape=umlActor;verticalLabelPosition=bottom;verticalAlign=top;html=1;outlineConnect=0;" vertex="1" parent="1">
          <mxGeometry x="60" y="110" width="30" height="60" as="geometry" />
        </mxCell>
        <mxCell id="0w7B_Qu3y_xX7L4CdGE6-17" value="Window : UI" style="html=1;whiteSpace=wrap;" vertex="1" parent="1">
          <mxGeometry x="150" y="130" width="110" height="50" as="geometry" />
        </mxCell>
        <mxCell id="0w7B_Qu3y_xX7L4CdGE6-18" value="Router" style="html=1;whiteSpace=wrap;" vertex="1" parent="1">
          <mxGeometry x="280" y="130" width="110" height="50" as="geometry" />
        </mxCell>
        <mxCell id="0w7B_Qu3y_xX7L4CdGE6-19" value="Controller" style="html=1;whiteSpace=wrap;" vertex="1" parent="1">
          <mxGeometry x="420" y="130" width="110" height="50" as="geometry" />
        </mxCell>
        <mxCell id="0w7B_Qu3y_xX7L4CdGE6-20" value="BDD" style="html=1;whiteSpace=wrap;" vertex="1" parent="1">
          <mxGeometry x="570" y="130" width="110" height="50" as="geometry" />
        </mxCell>
        <mxCell id="0w7B_Qu3y_xX7L4CdGE6-21" value="" style="group" vertex="1" connectable="0" parent="1">
          <mxGeometry x="330" y="240" width="140" height="240" as="geometry" />
        </mxCell>
        <mxCell id="0w7B_Qu3y_xX7L4CdGE6-12" value="" style="html=1;points=[[0,0,0,0,5],[0,1,0,0,-5],[1,0,0,0,5],[1,1,0,0,-5]];perimeter=orthogonalPerimeter;outlineConnect=0;targetShapes=umlLifeline;portConstraint=eastwest;newEdgeStyle={&quot;curved&quot;:0,&quot;rounded&quot;:0};" vertex="1" parent="0w7B_Qu3y_xX7L4CdGE6-21">
          <mxGeometry width="9.333333333333334" height="240" as="geometry" />
        </mxCell>
        <mxCell id="0w7B_Qu3y_xX7L4CdGE6-14" value="return" style="html=1;verticalAlign=bottom;endArrow=open;dashed=1;endSize=8;curved=0;rounded=0;" edge="1" parent="0w7B_Qu3y_xX7L4CdGE6-21">
          <mxGeometry relative="1" as="geometry">
            <mxPoint x="9.333333333333334" y="170" as="targetPoint" />
            <mxPoint x="140" y="170" as="sourcePoint" />
          </mxGeometry>
        </mxCell>
        <mxCell id="0w7B_Qu3y_xX7L4CdGE6-13" value="callback" style="html=1;verticalAlign=bottom;endArrow=block;curved=0;rounded=0;" edge="1" parent="0w7B_Qu3y_xX7L4CdGE6-21">
          <mxGeometry relative="1" as="geometry">
            <mxPoint x="9.333333333333334" y="80" as="sourcePoint" />
            <mxPoint x="139.9999999999998" y="80" as="targetPoint" />
          </mxGeometry>
        </mxCell>
        <mxCell id="0w7B_Qu3y_xX7L4CdGE6-22" value="" style="group" vertex="1" connectable="0" parent="1">
          <mxGeometry x="200" y="240" width="10" height="240" as="geometry" />
        </mxCell>
        <mxCell id="0w7B_Qu3y_xX7L4CdGE6-8" value="" style="html=1;points=[[0,0,0,0,5],[0,1,0,0,-5],[1,0,0,0,5],[1,1,0,0,-5]];perimeter=orthogonalPerimeter;outlineConnect=0;targetShapes=umlLifeline;portConstraint=eastwest;newEdgeStyle={&quot;curved&quot;:0,&quot;rounded&quot;:0};" vertex="1" parent="0w7B_Qu3y_xX7L4CdGE6-22">
          <mxGeometry width="10" height="240" as="geometry" />
        </mxCell>
        <mxCell id="0w7B_Qu3y_xX7L4CdGE6-9" value="callback" style="html=1;verticalAlign=bottom;endArrow=block;curved=0;rounded=0;" edge="1" parent="0w7B_Qu3y_xX7L4CdGE6-22" target="0w7B_Qu3y_xX7L4CdGE6-12">
          <mxGeometry relative="1" as="geometry">
            <mxPoint x="10" y="40" as="sourcePoint" />
            <mxPoint x="120" y="40" as="targetPoint" />
          </mxGeometry>
        </mxCell>
        <mxCell id="0w7B_Qu3y_xX7L4CdGE6-10" value="return" style="html=1;verticalAlign=bottom;endArrow=open;dashed=1;endSize=8;curved=0;rounded=0;" edge="1" source="0w7B_Qu3y_xX7L4CdGE6-12" parent="0w7B_Qu3y_xX7L4CdGE6-22">
          <mxGeometry relative="1" as="geometry">
            <mxPoint x="10" y="200" as="targetPoint" />
            <mxPoint x="120" y="200" as="sourcePoint" />
          </mxGeometry>
        </mxCell>
        <mxCell id="0w7B_Qu3y_xX7L4CdGE6-23" value="" style="group" vertex="1" connectable="0" parent="1">
          <mxGeometry x="70" y="200" width="130" height="320" as="geometry" />
        </mxCell>
        <mxCell id="0w7B_Qu3y_xX7L4CdGE6-2" value="" style="html=1;points=[[0,0,0,0,5],[0,1,0,0,-5],[1,0,0,0,5],[1,1,0,0,-5]];perimeter=orthogonalPerimeter;outlineConnect=0;targetShapes=umlLifeline;portConstraint=eastwest;newEdgeStyle={&quot;curved&quot;:0,&quot;rounded&quot;:0};" vertex="1" parent="0w7B_Qu3y_xX7L4CdGE6-23">
          <mxGeometry width="10" height="320" as="geometry" />
        </mxCell>
        <mxCell id="0w7B_Qu3y_xX7L4CdGE6-3" value="Click on login button" style="html=1;verticalAlign=bottom;endArrow=block;curved=0;rounded=0;" edge="1" parent="0w7B_Qu3y_xX7L4CdGE6-23">
          <mxGeometry relative="1" as="geometry">
            <mxPoint x="10" y="50" as="sourcePoint" />
            <mxPoint x="130" y="50" as="targetPoint" />
          </mxGeometry>
        </mxCell>
        <mxCell id="0w7B_Qu3y_xX7L4CdGE6-4" value="return" style="html=1;verticalAlign=bottom;endArrow=open;dashed=1;endSize=8;curved=0;rounded=0;" edge="1" parent="0w7B_Qu3y_xX7L4CdGE6-23">
          <mxGeometry relative="1" as="geometry">
            <mxPoint x="10" y="270" as="targetPoint" />
            <mxPoint x="130" y="270" as="sourcePoint" />
            <Array as="points">
              <mxPoint x="60" y="270" />
            </Array>
          </mxGeometry>
        </mxCell>
        <mxCell id="0w7B_Qu3y_xX7L4CdGE6-24" value="" style="group" vertex="1" connectable="0" parent="1">
          <mxGeometry x="470" y="240" width="140" height="240" as="geometry" />
        </mxCell>
        <mxCell id="0w7B_Qu3y_xX7L4CdGE6-25" value="" style="html=1;points=[[0,0,0,0,5],[0,1,0,0,-5],[1,0,0,0,5],[1,1,0,0,-5]];perimeter=orthogonalPerimeter;outlineConnect=0;targetShapes=umlLifeline;portConstraint=eastwest;newEdgeStyle={&quot;curved&quot;:0,&quot;rounded&quot;:0};" vertex="1" parent="0w7B_Qu3y_xX7L4CdGE6-24">
          <mxGeometry width="9.333333333333334" height="240" as="geometry" />
        </mxCell>
        <mxCell id="0w7B_Qu3y_xX7L4CdGE6-27" value="return" style="html=1;verticalAlign=bottom;endArrow=open;dashed=1;endSize=8;curved=0;rounded=0;" edge="1" parent="0w7B_Qu3y_xX7L4CdGE6-24" target="0w7B_Qu3y_xX7L4CdGE6-25">
          <mxGeometry relative="1" as="geometry">
            <mxPoint x="18.666666666666668" y="200" as="targetPoint" />
            <mxPoint x="140" y="200" as="sourcePoint" />
          </mxGeometry>
        </mxCell>
        <mxCell id="0w7B_Qu3y_xX7L4CdGE6-35" value="" style="html=1;points=[[0,0,0,0,5],[0,1,0,0,-5],[1,0,0,0,5],[1,1,0,0,-5]];perimeter=orthogonalPerimeter;outlineConnect=0;targetShapes=umlLifeline;portConstraint=eastwest;newEdgeStyle={&quot;curved&quot;:0,&quot;rounded&quot;:0};" vertex="1" parent="1">
          <mxGeometry x="620" y="235" width="10" height="250" as="geometry" />
        </mxCell>
        <mxCell id="0w7B_Qu3y_xX7L4CdGE6-26" value="callback" style="html=1;verticalAlign=bottom;endArrow=block;curved=0;rounded=0;" edge="1" parent="1" source="0w7B_Qu3y_xX7L4CdGE6-25" target="0w7B_Qu3y_xX7L4CdGE6-35">
          <mxGeometry relative="1" as="geometry">
            <mxPoint x="507.3333333333333" y="280" as="sourcePoint" />
            <mxPoint x="610" y="280" as="targetPoint" />
          </mxGeometry>
        </mxCell>
        <mxCell id="0w7B_Qu3y_xX7L4CdGE6-38" value="" style="endArrow=none;html=1;rounded=0;dashed=1;" edge="1" parent="1" source="0w7B_Qu3y_xX7L4CdGE6-8" target="0w7B_Qu3y_xX7L4CdGE6-17">
          <mxGeometry width="50" height="50" relative="1" as="geometry">
            <mxPoint x="300" y="240" as="sourcePoint" />
            <mxPoint x="350" y="190" as="targetPoint" />
          </mxGeometry>
        </mxCell>
        <mxCell id="0w7B_Qu3y_xX7L4CdGE6-39" value="" style="endArrow=none;html=1;rounded=0;dashed=1;" edge="1" parent="1" source="0w7B_Qu3y_xX7L4CdGE6-12" target="0w7B_Qu3y_xX7L4CdGE6-18">
          <mxGeometry width="50" height="50" relative="1" as="geometry">
            <mxPoint x="334.71" y="240" as="sourcePoint" />
            <mxPoint x="334.71" y="180" as="targetPoint" />
          </mxGeometry>
        </mxCell>
        <mxCell id="0w7B_Qu3y_xX7L4CdGE6-40" value="" style="endArrow=none;html=1;rounded=0;dashed=1;" edge="1" parent="1" source="0w7B_Qu3y_xX7L4CdGE6-25" target="0w7B_Qu3y_xX7L4CdGE6-19">
          <mxGeometry width="50" height="50" relative="1" as="geometry">
            <mxPoint x="474.71" y="240" as="sourcePoint" />
            <mxPoint x="474.71" y="180" as="targetPoint" />
          </mxGeometry>
        </mxCell>
        <mxCell id="0w7B_Qu3y_xX7L4CdGE6-41" value="" style="endArrow=none;html=1;rounded=0;dashed=1;" edge="1" parent="1" source="0w7B_Qu3y_xX7L4CdGE6-35" target="0w7B_Qu3y_xX7L4CdGE6-20">
          <mxGeometry width="50" height="50" relative="1" as="geometry">
            <mxPoint x="614.71" y="240" as="sourcePoint" />
            <mxPoint x="614.71" y="180" as="targetPoint" />
          </mxGeometry>
        </mxCell>
        <mxCell id="SgtZpGTMb--8NDX_wIwe-129" parent="0" />
        <mxCell id="SgtZpGTMb--8NDX_wIwe-161" value="Couche non nommÃ©e" parent="0" />
      </root>
    </mxGraphModel>
  </diagram>
</mxfile>
